<?xml version="1.0" encoding="utf-8"?>
<!-- Generator: Adobe Illustrator 19.2.0, SVG Export Plug-In . SVG Version: 6.00 Build 0)  -->
<svg version="1.1" id="Layer_1" xmlns="http://www.w3.org/2000/svg" xmlns:xlink="http://www.w3.org/1999/xlink" x="0px" y="0px"
	 viewBox="0 0 70 70" style="enable-background:new 0 0 70 70;" xml:space="preserve">
<style type="text/css">
	.st0{fill:#FFFFFF;}
</style>
<title>icon-twitter</title>
<path class="st0" d="M66.7,15.7c-0.4-0.4-1-0.6-1.6-0.3c-0.7,0.3-1.4,0.6-2,0.8c1-1.2,1.7-2.6,2.2-4.1c0.2-0.5,0-1.1-0.4-1.4
	c-0.4-0.4-1-0.4-1.5-0.1c-2.2,1.3-4.5,2.2-6.9,2.7c-2.6-2.4-6-3.7-9.6-3.7C39.2,9.5,33,15.5,32.9,23c0,0.5,0,0.9,0.1,1.4
	c-9.1-0.8-17.4-5.2-23.3-12.2c-0.3-0.3-0.7-0.5-1.1-0.5c-0.4,0-0.8,0.3-1,0.6C4.8,17,5.1,22.8,8.3,27.1C8,27,7.8,26.8,7.5,26.7
	c-0.4-0.2-0.9-0.2-1.3,0c-0.4,0.2-0.7,0.7-0.7,1.2V28c0,4.3,2.1,8.4,5.7,10.9c-0.4,0-0.7,0.2-1,0.4c-0.3,0.3-0.4,0.8-0.3,1.2
	c1.5,4.4,5,7.7,9.5,8.9c-3.7,2.1-7.9,3.2-12.1,3.2c-1,0-1.9-0.1-2.9-0.2c-0.6-0.1-1.2,0.3-1.4,0.8c-0.2,0.6,0,1.2,0.5,1.5
	c6,3.7,13,5.7,20,5.7c23.2,0,37.1-18.3,37.1-36c0-0.3,0-0.6,0-0.9c2.3-1.7,4.4-3.8,6-6.2C67.1,16.8,67.1,16.2,66.7,15.7z M58.6,21.8
	c-0.4,0.2-0.6,0.7-0.5,1.1c0,0.5,0,1,0,1.5c0,20.9-17.5,33.4-34.5,33.4c-4.8,0-9.5-1-13.9-2.8c5.1-0.4,10-2.3,14.1-5.4
	c0.4-0.3,0.6-0.9,0.4-1.4c-0.2-0.5-0.7-0.9-1.2-0.9c-4,0-7.7-2.2-9.7-5.7c1.3,0,2.6-0.1,3.9-0.5c0.7-0.1,1.1-0.8,1-1.5
	c-0.1-0.5-0.5-0.9-1.1-1c-4.5-0.8-8-4.3-8.9-8.8c1.3,0.5,2.7,0.7,4.2,0.8c0.6,0,1.1-0.3,1.3-0.9c0.2-0.5,0-1.1-0.5-1.5
	c-3.1-2-5-5.4-5-9.1c0-1.3,0.2-2.6,0.7-3.8c6.7,7,15.8,11.2,25.5,11.7c0.4,0,0.8-0.1,1.1-0.5c0.3-0.3,0.4-0.7,0.3-1.1
	c-0.2-0.8-0.3-1.7-0.3-2.5c0.1-6.1,5.1-11,11.3-10.9c0,0,0,0,0,0c3.1,0,6.1,1.2,8.2,3.4c0.3,0.3,0.8,0.5,1.2,0.4
	c1.6-0.3,3.2-0.8,4.7-1.4c-0.9,1.1-2,2.1-3.2,2.8c-0.5,0.3-0.8,0.9-0.6,1.5c0.2,0.6,0.8,0.9,1.4,0.9c1.1-0.1,2.1-0.3,3.2-0.5
	C60.8,20.2,59.7,21,58.6,21.8L58.6,21.8z"/>
</svg>
