<?xml version="1.0" encoding="utf-8"?>
<!-- Generator: Adobe Illustrator 19.2.0, SVG Export Plug-In . SVG Version: 6.00 Build 0)  -->
<svg version="1.1" id="Layer_1" xmlns="http://www.w3.org/2000/svg" xmlns:xlink="http://www.w3.org/1999/xlink" x="0px" y="0px"
	 viewBox="0 0 70 70" style="enable-background:new 0 0 70 70;" xml:space="preserve">
<style type="text/css">
	.st0{fill:#FFFFFF;}
</style>
<title>icon-linkedin</title>
<path class="st0" d="M18,23.8H5.3C4.6,23.8,4,24.3,4,25v39.8C4,65.4,4.6,66,5.3,66H18c0.7,0,1.3-0.6,1.3-1.3c0,0,0,0,0,0V25
	C19.3,24.3,18.7,23.7,18,23.8z M16.7,63.5H6.6V26.3h10.1L16.7,63.5L16.7,63.5z M11.6,4C6.9,4,3.1,7.7,3,12.4c0.1,4.7,4,8.5,8.7,8.4
	c4.7,0.1,8.6-3.7,8.7-8.4C20.3,7.7,16.4,3.9,11.6,4C11.7,4,11.7,4,11.6,4z M11.6,18.3c-3.3,0.1-6-2.6-6.1-5.9c0.1-3.3,2.8-6,6.1-5.9
	c3.3,0,6,2.6,6.1,5.9C17.7,15.7,15,18.4,11.6,18.3L11.6,18.3z M50.5,22.8c-4-0.1-8,1.4-10.9,4.2V25c0-0.7-0.6-1.3-1.3-1.3
	c0,0,0,0,0,0H26c-0.7,0-1.3,0.6-1.3,1.3v39.8c0,0.7,0.6,1.3,1.3,1.2h12.8c0.7,0,1.2-0.6,1.2-1.2V45.1c0-6.4,1.8-8.9,6.3-8.9
	c3,0,5.3,0.7,5.3,9.3v19.3c0,0.7,0.6,1.3,1.3,1.3c0,0,0,0,0,0h12.7c0.7,0,1.2-0.6,1.3-1.2V43C67,33,65.1,22.8,50.5,22.8L50.5,22.8z
	 M64.5,63.5H54.3V45.4c0-4.4,0-11.8-7.9-11.8c-8.9,0-8.9,8.3-8.9,11.5v18.4H27.3V26.3h9.6v4.2c0,0.7,0.6,1.3,1.3,1.3c0,0,0,0,0,0
	h0.2c0.5,0,0.9-0.3,1.2-0.7c1.4-2.7,5.2-5.7,10.9-5.7c8.4,0,14,3,14,17.7L64.5,63.5L64.5,63.5z"/>
</svg>
