<?xml version="1.0" encoding="utf-8"?>
<!-- Generator: Adobe Illustrator 19.2.0, SVG Export Plug-In . SVG Version: 6.00 Build 0)  -->
<svg version="1.1" id="Layer_1" xmlns="http://www.w3.org/2000/svg" xmlns:xlink="http://www.w3.org/1999/xlink" x="0px" y="0px"
	 viewBox="0 0 70 70" style="enable-background:new 0 0 70 70;" xml:space="preserve">
<style type="text/css">
	.st0{fill:#FFFFFF;}
</style>
<title>icon-facebook</title>
<path class="st0" d="M51.6,3.4C48.7,3.1,45.7,3,42.8,3C33.1,3,27,9,27,18.7v6.8h-8.5c-0.7,0-1.3,0.5-1.3,1.2c0,0,0,0,0,0v11
	c0,0.7,0.6,1.2,1.3,1.2H27v26.9c0,0.7,0.6,1.2,1.3,1.2c0,0,0,0,0,0h11.7c0.7,0,1.3-0.5,1.3-1.2c0,0,0,0,0,0V38.9h8.4
	c0.6,0,1.2-0.4,1.3-1.1l1.5-10.9c0-0.4-0.1-0.7-0.3-1c-0.2-0.3-0.6-0.4-1-0.4h-9.8v-5.7c0-2.8,0.7-4.1,4.3-4.1h6
	c0.7,0,1.3-0.5,1.3-1.2c0,0,0,0,0,0V4.7C52.7,4,52.3,3.5,51.6,3.4z M50.2,13.2h-4.7c-6.1,0-6.9,3.5-6.9,6.6v7c0,0.7,0.6,1.2,1.3,1.2
	c0,0,0,0,0,0h9.7l-1.1,8.5h-8.6c-0.7,0-1.3,0.5-1.3,1.2c0,0,0,0,0,0v26.8h-9.1V37.7c0-0.7-0.6-1.2-1.3-1.2c0,0,0,0,0,0h-8.5V28h8.5
	c0.7,0,1.3-0.5,1.3-1.2c0,0,0,0,0,0v-8.1c0-8.3,5-13.2,13.2-13.2c3.1,0,5.8,0.2,7.4,0.3V13.2L50.2,13.2z"/>
</svg>
