<?xml version="1.0" encoding="utf-8"?>
<!-- Generator: Adobe Illustrator 19.2.0, SVG Export Plug-In . SVG Version: 6.00 Build 0)  -->
<svg version="1.1" id="Layer_1" xmlns="http://www.w3.org/2000/svg" xmlns:xlink="http://www.w3.org/1999/xlink" x="0px" y="0px"
	 viewBox="0 0 70 70" style="enable-background:new 0 0 70 70;" xml:space="preserve">
<style type="text/css">
	.st0{fill:#FFFFFF;}
</style>
<title>icon-instagram</title>
<path class="st0" d="M49,24.9h6.9c2.2,0,4.1-1.7,4.1-4c0,0,0,0,0,0v-6.4c0-2.2-1.9-4-4.1-4c0,0,0,0,0,0H49c-2.2,0-4.1,1.7-4.1,4
	c0,0,0,0,0,0V21C44.9,23.2,46.8,25,49,24.9C49,24.9,49,24.9,49,24.9z M47.6,14.6c0-0.8,0.6-1.4,1.4-1.4c0,0,0,0,0,0h6.9
	c0.8,0,1.4,0.6,1.4,1.4c0,0,0,0,0,0V21c0,0.8-0.6,1.4-1.4,1.4c0,0,0,0,0,0H49c-0.8,0-1.4-0.6-1.4-1.4c0,0,0,0,0,0
	C47.6,21,47.6,14.6,47.6,14.6z M35.1,47.8c7.5,0,13.7-5.8,13.7-12.9S42.6,22,35.1,22s-13.7,5.8-13.7,12.9S27.5,47.8,35.1,47.8z
	 M35.1,24.6c6.1,0,11,4.6,11,10.3s-4.9,10.3-11,10.3s-11-4.6-11-10.3S29,24.6,35.1,24.6L35.1,24.6z M58.8,29.1h-5.4
	c-0.4,0-0.8,0.2-1,0.5C52,30,52,30.4,52.1,30.8c0.5,1.5,0.7,3.1,0.7,4.7c0,9.2-8,16.6-17.7,16.6s-17.7-7.4-17.7-16.6
	c0-1.6,0.2-3.2,0.7-4.7c0.1-0.4,0-0.8-0.2-1.2c-0.2-0.3-0.6-0.5-1-0.5h-5.7c-0.7,0-1.3,0.6-1.3,1.3c0,0,0,0,0,0v25.1
	c0,2.1,1.7,3.7,3.8,3.7h42.7c2.1,0,3.7-1.6,3.8-3.7V30.4C60.1,29.7,59.5,29.1,58.8,29.1C58.7,29.1,58.7,29.1,58.8,29.1L58.8,29.1z
	 M57.4,55.5c0,0.6-0.5,1-1,1c0,0,0,0-0.1,0H13.6c-0.6,0-1.1-0.4-1.1-1c0,0,0,0,0-0.1V31.7h2.6c-0.3,1.3-0.4,2.5-0.4,3.8
	c0,10.6,9.2,19.2,20.4,19.2s20.4-8.6,20.4-19.2c0-1.3-0.1-2.6-0.4-3.8h2.3L57.4,55.5L57.4,55.5z M57.8,4H12.2
	c-5-0.1-9.1,3.9-9.2,8.9v44.2c0.1,5,4.2,9,9.2,8.9h45.6c5,0.1,9.1-3.9,9.2-8.9V12.9C66.9,7.9,62.8,3.9,57.8,4z M64.3,57.1
	c-0.1,3.6-3,6.4-6.5,6.3H12.2c-3.6,0.1-6.5-2.8-6.5-6.3V12.9c0.1-3.5,3-6.4,6.5-6.3h45.6c3.6-0.1,6.5,2.8,6.5,6.3V57.1z"/>
</svg>
