<svg id="Layer_1" data-name="Layer 1" xmlns="http://www.w3.org/2000/svg" viewBox="0 0 859.82 179.78"><defs><style>.cls-1{fill:#fff;}.cls-2{fill:#89b8ea;}.cls-3{fill:#093ab5;}.cls-4{fill:#8b8b8b;}</style></defs><title>icon-instagram</title><path class="cls-1" d="M53.6,30.23h6.73a3.93,3.93,0,0,0,4-3.86V20.15a3.93,3.93,0,0,0-4-3.87H53.6a3.93,3.93,0,0,0-4,3.87v6.22A3.93,3.93,0,0,0,53.6,30.23ZM52.22,20.15a1.36,1.36,0,0,1,1.38-1.34h6.73a1.36,1.36,0,0,1,1.38,1.34v6.22a1.36,1.36,0,0,1-1.38,1.34H53.6a1.36,1.36,0,0,1-1.38-1.34V20.15ZM40.06,52.38c7.31,0,13.26-5.61,13.26-12.5s-5.95-12.5-13.26-12.5S26.8,33,26.8,39.88,32.75,52.38,40.06,52.38Zm0-22.47c5.88,0,10.66,4.47,10.66,10s-4.78,10-10.66,10-10.65-4.47-10.65-10S34.18,29.9,40.06,29.9Zm23,4.38H57.8a1.32,1.32,0,0,0-1,.51,1.23,1.23,0,0,0-.2,1.12,15.21,15.21,0,0,1,.71,4.59c0,8.89-7.72,16.13-17.21,16.13s-17.2-7.23-17.2-16.13a15.26,15.26,0,0,1,.71-4.59,1.23,1.23,0,0,0-.2-1.12,1.32,1.32,0,0,0-1-.51H16.85a1.28,1.28,0,0,0-1.3,1.26V59.94a3.62,3.62,0,0,0,3.67,3.55H60.67a3.62,3.62,0,0,0,3.67-3.55V35.55A1.28,1.28,0,0,0,63,34.28Zm-1.3,25.66a1,1,0,0,1-1.06,1H19.22a1,1,0,0,1-1.06-1V36.81h2.49a17.65,17.65,0,0,0-.39,3.7c0,10.28,8.89,18.65,19.81,18.65s19.81-8.37,19.81-18.65a17.68,17.68,0,0,0-.39-3.7h2.26V59.94ZM62.13,9.87H17.88a8.82,8.82,0,0,0-8.95,8.67V61.46a8.82,8.82,0,0,0,8.95,8.67H62.13a8.82,8.82,0,0,0,8.94-8.67V18.54A8.82,8.82,0,0,0,62.13,9.87Zm6.34,51.59a6.25,6.25,0,0,1-6.34,6.15H17.88a6.25,6.25,0,0,1-6.34-6.15V18.54a6.26,6.26,0,0,1,6.34-6.15H62.13a6.25,6.25,0,0,1,6.34,6.15V61.46Z" transform="translate(547.78 -9.87)"/><path class="cls-2" d="M256.65,89a8.43,8.43,0,1,0,8.69,8.42A8.57,8.57,0,0,0,256.65,89Zm0,14.32a5.9,5.9,0,1,1,6.08-5.9A6,6,0,0,1,256.65,103.31Zm6.37,5.43H250.27A1.28,1.28,0,0,0,249,110v39.74a1.28,1.28,0,0,0,1.3,1.26H263a1.28,1.28,0,0,0,1.3-1.26V110A1.28,1.28,0,0,0,263,108.75Zm-1.3,39.74H251.57V111.27h10.15v37.21Zm33.74-40.73a15.59,15.59,0,0,0-10.93,4.17V110a1.28,1.28,0,0,0-1.3-1.26H271a1.28,1.28,0,0,0-1.3,1.26v39.74A1.28,1.28,0,0,0,271,151h12.73a1.28,1.28,0,0,0,1.3-1.26V130.09c0-6.43,1.78-8.94,6.34-8.94,3,0,5.32.68,5.32,9.28v19.32A1.28,1.28,0,0,0,298,151h12.73a1.28,1.28,0,0,0,1.3-1.26v-21.8C312,118,310.07,107.76,295.46,107.76Zm14,40.73H299.31V130.43c0-4.41,0-11.8-7.92-11.8-8.94,0-8.94,8.33-8.94,11.46v18.4H272.32V111.27h9.61v4.17a1.28,1.28,0,0,0,1.3,1.26h0.17a1.31,1.31,0,0,0,1.15-.67c1.44-2.65,5.16-5.74,10.91-5.74,8.39,0,14,3,14,17.67v20.53Z" transform="translate(547.78 -9.87)"/><path class="cls-2" d="M231.13,101.06a1.33,1.33,0,0,0-1.53-.34q-1,.43-2,0.77a13,13,0,0,0,2.13-4,1.24,1.24,0,0,0-.43-1.37,1.33,1.33,0,0,0-1.48-.1A23.78,23.78,0,0,1,221,98.66,14,14,0,0,0,211.59,95a13.48,13.48,0,0,0-13.67,13.25,13.09,13.09,0,0,0,.07,1.35,34.23,34.23,0,0,1-22.92-11.95,1.33,1.33,0,0,0-1.11-.46,1.31,1.31,0,0,0-1,.62,13,13,0,0,0,.71,14.4c-0.25-.11-0.49-0.23-0.73-0.36a1.34,1.34,0,0,0-1.29,0A1.26,1.26,0,0,0,171,113v0.15a13.17,13.17,0,0,0,5.6,10.7,1.32,1.32,0,0,0-.94.42,1.23,1.23,0,0,0-.27,1.22,13.48,13.48,0,0,0,9.31,8.71,23.92,23.92,0,0,1-11.88,3.1,25.06,25.06,0,0,1-2.79-.16,1.31,1.31,0,0,0-1.38.83,1.24,1.24,0,0,0,.52,1.49A37.2,37.2,0,0,0,188.82,145c22.83,0,36.48-18,36.48-35.38,0-.31,0-0.62,0-0.93a25.92,25.92,0,0,0,5.92-6.12A1.23,1.23,0,0,0,231.13,101.06Zm-7.92,6a1.25,1.25,0,0,0-.54,1.07c0,0.5,0,1,0,1.51,0,20.56-17.22,32.85-33.87,32.85a34.66,34.66,0,0,1-13.65-2.79,26.36,26.36,0,0,0,13.81-5.3,1.24,1.24,0,0,0,.43-1.39,1.3,1.3,0,0,0-1.21-.86,11.12,11.12,0,0,1-9.51-5.59,13.9,13.9,0,0,0,3.86-.47,1.25,1.25,0,0,0-.09-2.46,10.92,10.92,0,0,1-8.7-8.65,14,14,0,0,0,4.09.74,1.3,1.3,0,0,0,1.28-.88,1.24,1.24,0,0,0-.52-1.43,10.64,10.64,0,0,1-4.92-8.93,10.47,10.47,0,0,1,.69-3.74,37,37,0,0,0,25.1,11.5,1.33,1.33,0,0,0,1.06-.45,1.24,1.24,0,0,0,.27-1.1,10.56,10.56,0,0,1-.29-2.45,10.91,10.91,0,0,1,11.06-10.73,11.28,11.28,0,0,1,8.08,3.39,1.33,1.33,0,0,0,1.2.37,26.56,26.56,0,0,0,4.64-1.33,11.06,11.06,0,0,1-3.15,2.73,1.24,1.24,0,0,0-.56,1.49,1.31,1.31,0,0,0,1.39.85,27,27,0,0,0,3.11-.54A23.43,23.43,0,0,1,223.2,107.05Z" transform="translate(547.78 -9.87)"/><path class="cls-2" d="M137.12,87.53a86.15,86.15,0,0,0-9.12-.45c-10,0-16.23,6.19-16.23,16.14v7h-8.72a1.28,1.28,0,0,0-1.3,1.26v11.26a1.28,1.28,0,0,0,1.3,1.26h8.72v27.62a1.28,1.28,0,0,0,1.3,1.26h12a1.28,1.28,0,0,0,1.3-1.26V124H135a1.29,1.29,0,0,0,1.29-1.1l1.5-11.26a1.24,1.24,0,0,0-.31-1,1.32,1.32,0,0,0-1-.43H126.36v-5.92c0-2.86.67-4.22,4.45-4.22h6.14a1.28,1.28,0,0,0,1.3-1.26V88.79A1.28,1.28,0,0,0,137.12,87.53Zm-1.47,10.06h-4.84c-6.26,0-7.06,3.6-7.06,6.74v7.18a1.28,1.28,0,0,0,1.3,1.26h10l-1.16,8.73h-8.85a1.28,1.28,0,0,0-1.3,1.26v27.62h-9.38V122.78a1.28,1.28,0,0,0-1.3-1.26h-8.72v-8.73h8.72a1.28,1.28,0,0,0,1.3-1.26v-8.3c0-8.53,5.09-13.62,13.62-13.62,3.16,0,6,.17,7.65.32v7.67Z" transform="translate(547.78 -9.87)"/><rect class="cls-3" y="9.13" width="106.88" height="97.3"/><rect class="cls-4" y="82.48" width="106.88" height="97.3"/></svg>