<svg id="meltLogo" data-name="Layer 1" xmlns="http://www.w3.org/2000/svg" viewBox="0 0 60 60">
	<defs>
		<style>.cls-1{fill:#89b8ea;}</style>
	</defs>
	<path class="cls-1" d="M30,0A30,30,0,1,0,60,30,30,30,0,0,0,30,0ZM18.58,29.41a7.6,7.6,0,0,0,.48,2.7,8,8,0,0,1,.35,2.83,7.25,7.25,0,0,1-6,6.62,7.18,7.18,0,0,1-8-4.35,7.66,7.66,0,0,1-.13-5.31,7.23,7.23,0,0,1,4.92-4.57,15.29,15.29,0,0,0,2.44-.7,3.2,3.2,0,0,0,1.87-3,7.17,7.17,0,0,0-.48-2,10.08,10.08,0,0,1-.39-2,7.25,7.25,0,0,1,.83-4,7.13,7.13,0,0,1,6.05-3.79,7.3,7.3,0,0,1,5.05,1.65A7,7,0,0,1,28,17.75a7.23,7.23,0,0,1-4.66,8.32,30.56,30.56,0,0,0-3,.78A3.15,3.15,0,0,0,18.58,29.41Zm17.85,0a7.62,7.62,0,0,0,.48,2.7,8,8,0,0,1,.35,2.83,7.31,7.31,0,0,1-14,2.26,7.68,7.68,0,0,1-.13-5.31A7.23,7.23,0,0,1,28,27.32a15.36,15.36,0,0,0,2.44-.7,3.2,3.2,0,0,0,1.87-3,7.18,7.18,0,0,0-.48-2,10,10,0,0,1-.39-2,7.26,7.26,0,0,1,.83-4,7.43,7.43,0,0,1,2.31-2.57,7.54,7.54,0,0,1,3.75-1.22,7.3,7.3,0,0,1,5.05,1.65,7,7,0,0,1,2.48,4.18,7.23,7.23,0,0,1-4.66,8.32,30.29,30.29,0,0,0-3,.78A3.15,3.15,0,0,0,36.43,29.41Zm8.75,11.8a7.34,7.34,0,1,1,9.14-10.28,7.53,7.53,0,0,1,.74,4.62A7.36,7.36,0,0,1,45.18,41.21Z" transform="translate(0 0)"/>
</svg>
