<svg id="Layer_1" data-name="Layer 1" xmlns="http://www.w3.org/2000/svg" viewBox="0 0 595 79"><defs><style>.cls-1{fill:#666;}</style></defs><title>whatWeDoIcons</title><path class="cls-1" d="M555.25,35.08a5.81,5.81,0,0,0-3.91-5.57l-8-2v-2.7a12.38,12.38,0,0,0,5.51-10.44c0-6.72-5.07-12.18-11.31-12.18s-11.31,5.46-11.31,12.18a12.42,12.42,0,0,0,5.22,10.25v2.89l-7.73,2A6,6,0,0,0,519.6,35v2.69h35.65V35.08ZM537.57,4.79a8.86,8.86,0,0,1,8.36,7.08,4.53,4.53,0,0,1-2.38.25,4.18,4.18,0,0,1-3.15-2.06,1.32,1.32,0,0,0-2.1-.31,8.46,8.46,0,0,1-9,1.7A8.82,8.82,0,0,1,537.57,4.79Zm-8.67,9.54c0-.06,0-0.13,0-0.19A11.53,11.53,0,0,0,539,12.59a7,7,0,0,0,4.17,2.13,8,8,0,0,0,1.16.09,7,7,0,0,0,1.9-.28c-0.1,5.17-3.94,9.34-8.66,9.34S528.9,19.6,528.9,14.34Zm-6.66,20.74V35a3.36,3.36,0,0,1,2.22-3l9.67-2.55V25.93a10.43,10.43,0,0,0,6.6.09v3.49l9.92,2.54a3.19,3.19,0,0,1,2,3H522.24Zm71.35-5.56-8-2v-2.7a12.38,12.38,0,0,0,5.51-10.44c0-6.72-5.07-12.18-11.31-12.18s-11.31,5.46-11.31,12.18a12.42,12.42,0,0,0,5.22,10.25v2.89l-7.73,2a6,6,0,0,0-4.16,5.5v2.69H597.5V35.08A5.81,5.81,0,0,0,593.59,29.51ZM579.82,4.79a8.86,8.86,0,0,1,8.36,7.08,4.52,4.52,0,0,1-2.38.25,4.18,4.18,0,0,1-3.15-2.06,1.32,1.32,0,0,0-1-.68,1.31,1.31,0,0,0-1.13.37,8.46,8.46,0,0,1-9,1.7A8.82,8.82,0,0,1,579.82,4.79Zm-8.67,9.54c0-.06,0-0.13,0-0.19a11.53,11.53,0,0,0,10.08-1.55,7,7,0,0,0,4.17,2.13,8,8,0,0,0,1.16.09,7,7,0,0,0,1.9-.28c-0.1,5.17-3.94,9.34-8.66,9.34S571.15,19.6,571.15,14.34Zm-6.66,20.74V35a3.36,3.36,0,0,1,2.22-3l9.67-2.55V25.93A10.43,10.43,0,0,0,583,26v3.49l9.92,2.54a3.19,3.19,0,0,1,2,3H564.49Zm7.21,36.29-7.49-2.14V66.28a12.45,12.45,0,0,0,5-10.1c0-6.72-5.07-12.18-11.31-12.18s-11.31,5.46-11.31,12.18a12.45,12.45,0,0,0,5,10.1v2.95l-7.5,2.14a6,6,0,0,0-4.16,5.5v3h35.93v-3A6,6,0,0,0,571.7,71.37ZM557.89,46.64a8.85,8.85,0,0,1,8.34,7,4.51,4.51,0,0,1-2.47.29,4,4,0,0,1-3-2,1.32,1.32,0,0,0-2.1-.31,8.45,8.45,0,0,1-9,1.7A8.82,8.82,0,0,1,557.89,46.64Zm-8.67,9.54c0-.06,0-0.13,0-0.19a11.52,11.52,0,0,0,10.08-1.55,6.85,6.85,0,0,0,4.06,2.08,7.72,7.72,0,0,0,1.12.08,7.19,7.19,0,0,0,2.06-.3c-0.06,5.21-3.92,9.43-8.66,9.43S549.22,61.45,549.22,56.18Zm24,21H542.56V76.87a3.36,3.36,0,0,1,2.24-3l9.41-2.68V67.69a10.37,10.37,0,0,0,7.35,0v3.53L571,73.9a3.36,3.36,0,0,1,2.24,3v0.34Zm-32.7-27.84-8.32-8.3a1.32,1.32,0,1,0-1.87,1.86l8.32,8.3A1.32,1.32,0,1,0,540.51,49.37Zm43.08-8.3-8.32,8.3a1.32,1.32,0,0,0,1.87,1.86l8.32-8.3A1.32,1.32,0,1,0,583.59,41.07ZM426.14,4.13c-21.84,0-39.61,14.57-39.61,32.47,0,8.53,4,16.51,11.16,22.6L389.31,76a1.32,1.32,0,0,0,1.76,1.77L412.84,67.2a47.42,47.42,0,0,0,13.3,1.87c21.84,0,39.61-14.57,39.61-32.47S448,4.13,426.14,4.13Zm0,62.31a44.73,44.73,0,0,1-13-1.91,1.32,1.32,0,0,0-1,.07L393.4,73.68l7.12-14.24a1.31,1.31,0,0,0-.36-1.62c-7.09-5.65-11-13.19-11-21.22,0-16.45,16.58-29.84,37-29.84s37,13.38,37,29.84S446.52,66.44,426.14,66.44ZM437,20.74c-4.5,0-7.53,2.9-9.24,6.39-1.72-3.49-4.74-6.39-9.24-6.39-5.11,0-10.39,4.26-10.39,11.4,0,10.39,18.09,23.63,18.86,24.18a1.32,1.32,0,0,0,1.55,0c0.77-.56,18.86-13.8,18.86-24.18C447.44,25,442.16,20.74,437,20.74Zm-1,25.69a88.36,88.36,0,0,1-8.25,7.18,88.28,88.28,0,0,1-8.22-7.15c-5.74-5.7-8.77-10.65-8.77-14.32,0-5.49,3.94-8.77,7.75-8.77s6.76,3,8,7.94a1.32,1.32,0,0,0,2.57,0c1.2-5,4.17-7.94,8-7.94s7.75,3.28,7.75,8.77C444.8,35.79,441.77,40.74,436.05,46.43Zm-387.12,5L35.51,46.65V27.83a6.74,6.74,0,0,0-6.72-6.41,6.62,6.62,0,0,0-6.49,6.41V60.4c-5.37-7.55-8.42-9.1-11.82-9.1A3.72,3.72,0,0,0,7,53.26c-1.1,2-.48,5,0.68,6.74L21.21,79.92a1.32,1.32,0,0,0,1.09.58H48.71A1.32,1.32,0,0,0,50,79.42l3.38-18.21C54.57,56.08,52,52.37,48.93,51.38Zm1.86,9.3L47.61,77.87H23L9.92,58.54a4.62,4.62,0,0,1-.55-4,1.09,1.09,0,0,1,1.11-.57c2.41,0,5.14.88,12,11.48a1.32,1.32,0,0,0,2.43-.72V27.83a4,4,0,0,1,3.85-3.78,4.15,4.15,0,0,1,4.08,3.78V47.58a1.32,1.32,0,0,0,.88,1.24l14.34,5.05C50.68,54.71,51.42,58,50.8,60.68ZM54,25.2H43.43a1.32,1.32,0,1,0,0,2.63H54A1.32,1.32,0,1,0,54,25.2ZM40.44,17.41A1.31,1.31,0,0,0,41.38,17L48,10.39a1.32,1.32,0,0,0-1.87-1.86l-6.66,6.64A1.32,1.32,0,0,0,40.44,17.41ZM28.91,14.67a1.32,1.32,0,0,0,1.32-1.32V2.82a1.32,1.32,0,0,0-2.64,0V13.35A1.32,1.32,0,0,0,28.91,14.67ZM16.2,17a1.32,1.32,0,1,0,1.87-1.86L11.41,8.53a1.32,1.32,0,1,0-1.87,1.86Zm-0.5,9.49a1.32,1.32,0,0,0-1.32-1.32H3.82a1.32,1.32,0,1,0,0,2.63H14.38A1.32,1.32,0,0,0,15.7,26.52ZM332,77.87h-4V29.15a1.32,1.32,0,0,0-1.32-1.32H316.17a1.32,1.32,0,0,0-1.32,1.32V77.87h-5.28v-25a1.32,1.32,0,0,0-1.32-1.32H297.69a1.32,1.32,0,0,0-1.32,1.32v25h-5.28V45a1.32,1.32,0,0,0-1.32-1.32H279.21A1.32,1.32,0,0,0,277.89,45V77.87H272.6V63.38a1.32,1.32,0,0,0-1.32-1.32H260.72a1.32,1.32,0,0,0-1.32,1.32V77.87h-4a1.32,1.32,0,1,0,0,2.63H332A1.32,1.32,0,1,0,332,77.87Zm-62.05,0H262V64.7H270V77.87Zm18.48,0h-7.92V46.27h7.92v31.6Zm18.48,0H299V54.17h7.92v23.7Zm18.48,0h-7.92V30.47h7.92v47.4ZM264.68,45A5.28,5.28,0,0,0,270,39.68a5.19,5.19,0,0,0-.57-2.33l12.1-10.46a5.25,5.25,0,0,0,7.24-1.22l10.35,4.13a5.16,5.16,0,0,0-.07.66,5.28,5.28,0,0,0,10.56,0,5.21,5.21,0,0,0-1-3.06l13.28-15.89a5.29,5.29,0,1,0-2-1.68L306.54,25.72a5.21,5.21,0,0,0-6.49,1.64L289.7,23.23a5.17,5.17,0,0,0,.07-0.66,5.28,5.28,0,0,0-10.56,0,5.19,5.19,0,0,0,.57,2.33l-12.1,10.46A5.27,5.27,0,1,0,264.68,45ZM324.1,4.13a2.63,2.63,0,1,1-2.64,2.63A2.64,2.64,0,0,1,324.1,4.13Zm-19.8,23.7a2.62,2.62,0,0,1,1.68.62h0a2.61,2.61,0,0,1,1,2A2.64,2.64,0,1,1,304.29,27.83Zm-19.8-7.9a2.63,2.63,0,1,1-2.64,2.63A2.64,2.64,0,0,1,284.49,19.93Zm-19.8,17.12a2.63,2.63,0,0,1,2,.92h0a2.61,2.61,0,0,1,.65,1.72A2.64,2.64,0,1,1,264.68,37.05ZM161.32,1.5A39.5,39.5,0,1,0,200.93,41,39.6,39.6,0,0,0,161.32,1.5Zm0,76.37a36.87,36.87,0,1,1,37-36.87A37,37,0,0,1,161.32,77.87ZM186.4,42.32a1.32,1.32,0,0,0-1.32,1.32c0,13.16-10.88,24.27-23.76,24.27s-23.76-11.12-23.76-24.27a1.32,1.32,0,0,0-2.64,0c0,14.58,12.09,26.91,26.41,26.91s26.41-12.32,26.41-26.91A1.32,1.32,0,0,0,186.4,42.32Zm-47.53-6.58a1.32,1.32,0,0,0,1.32-1.32c0-3,3.3-5.38,6.14-5.38a5.71,5.71,0,0,1,5.74,5.38,1.32,1.32,0,0,0,2.64,0c0-4.27-3.92-8-8.38-8-4.15,0-8.78,3.43-8.78,8A1.32,1.32,0,0,0,138.87,35.73Zm30.37,0a1.32,1.32,0,0,0,1.32-1.32A5.71,5.71,0,0,1,176.3,29c2.84,0,6.14,2.35,6.14,5.38a1.32,1.32,0,0,0,2.64,0c0-4.59-4.64-8-8.78-8-4.46,0-8.38,3.75-8.38,8A1.32,1.32,0,0,0,169.24,35.73Z" transform="translate(-2.5 -1.5)"/></svg>